<?xml version="1.0" encoding="UTF-8"?>
<svg width="34px" height="31px" viewBox="0 0 34 31" version="1.1" xmlns="http://www.w3.org/2000/svg" xmlns:xlink="http://www.w3.org/1999/xlink">
    <!-- Generator: Sketch 59.1 (86144) - https://sketch.com -->
    <title>home-interface</title>
    <desc>Created with Sketch.</desc>
    <g id="Page-1" stroke="none" stroke-width="1" fill="none" fill-rule="evenodd">
        <g id="Home" transform="translate(-351.000000, -949.000000)" fill="#93D4D5" fill-rule="nonzero">
            <g id="Categories" transform="translate(0.000000, 906.000000)">
                <g id="Group-3" transform="translate(351.000000, 39.000000)">
                    <g id="Group-2" transform="translate(0.000000, 4.000000)">
                        <g id="home-interface">
                            <path d="M33.6359191,14.1269741 L17.6989256,0.260785756 C17.2994453,-0.0869285854 16.7065508,-0.0869285854 16.3070704,0.260785756 L10.6250132,5.20141709 L10.6250132,3.20039298 C10.6250132,2.02279573 9.67304074,1.06716023 8.50011336,1.06716023 C7.32718599,1.06716023 6.37514362,2.0228659 6.37514362,3.20039298 L6.37514362,8.89834684 L0.365813078,14.1269741 C-0.0761666483,14.5130738 -0.125026972,15.1872397 0.259564591,15.6330579 C0.646323063,16.0767708 1.31568853,16.1237175 1.75976527,15.739723 L16.9998525,2.47935062 L32.2377729,15.739723 C32.441742,15.9146679 32.6861135,16 32.934749,16 C33.2343417,16 33.5254766,15.8741071 33.7358765,15.6330579 C34.1267591,15.1872397 34.0758018,14.5173545 33.6359191,14.1269741 Z" id="Shape"></path>
                            <path d="M18.8187652,8.47672207 C18.4375206,8.16101665 17.9687603,8 17.5,8 C17.0312397,8 16.5624794,8.15888443 16.1791788,8.47672207 L5.76248931,17.0473334 C5.27913167,17.4446132 5,18.0363374 5,18.6656848 L5,28.9090534 C5,30.0632697 5.9333401,31 7.08331049,31 L13.3333105,31 L13.3333105,20.5454733 L21.6666895,20.5454733 L21.6666895,31 L27.9166895,31 C29.0646039,31 30,30.0632697 30,28.9091222 L30,18.6657536 C30,18.0342739 29.7187438,17.444682 29.2353862,17.0494656 L18.8187652,8.47672207 Z" id="Shape"></path>
                        </g>
                    </g>
                </g>
            </g>
        </g>
    </g>
</svg>