<?xml version="1.0" encoding="UTF-8"?>
<svg width="512px" height="512px" viewBox="0 0 512 512" version="1.1" xmlns="http://www.w3.org/2000/svg" xmlns:xlink="http://www.w3.org/1999/xlink">
    <!-- Generator: Sketch 60.1 (88133) - https://sketch.com -->
    <title>Group 12</title>
    <desc>Created with Sketch.</desc>
    <defs>
        <polygon id="path-1" points="0.0111176932 0.892839632 511 0.892839632 511 512 0.0111176932 512"></polygon>
        <polygon id="path-3" points="0.0004 0.0004 512 0.0004 512 512 0.0004 512"></polygon>
        <polygon id="path-5" points="0.0384 0.034 20 0.034 20 20 0.0384 20"></polygon>
    </defs>
    <g id="Page-1" stroke="none" stroke-width="1" fill="none" fill-rule="evenodd">
        <g id="Group-12">
            <g id="Group-3" transform="translate(1.000000, 0.000000)">
                <mask id="mask-2" fill="white">
                    <use xlink:href="#path-1"></use>
                </mask>
                <g id="Clip-2"></g>
                <path d="M406.348,359.1094 L342.511,359.1094 C343.549,371.2284 357.625,382.7054 372.079,383.4824 C388.37,384.3584 403.343,373.9744 406.348,359.1094 L406.348,359.1094 Z M17.267,410.2694 L17.267,443.7854 C30.752,443.7854 43.977,443.8294 57.201,443.6774 C57.995,443.6694 59.442,442.1234 59.455,441.2744 C59.613,431.0324 59.557,420.7874 59.557,410.2694 L17.267,410.2694 Z M17.333,392.2654 L118.719,392.2654 L118.719,359.1564 L17.333,359.1564 L17.333,392.2654 Z M118.687,494.9894 L118.687,461.2974 L17.581,461.2974 C17.338,461.8664 17.107,462.1574 17.105,462.4494 C17.054,468.7614 17.008,475.0744 17.0029793,481.3864 C16.995,492.5964 19.306,494.9744 30.297,494.9834 C52.391,495.0024 74.486,494.9894 96.58,494.9894 L118.687,494.9894 Z M136.874,494.7034 L246.504,494.7034 L246.504,461.3184 L136.874,461.3184 L136.874,494.7034 Z M77.162,410.1924 L77.162,443.8264 L83.446,443.8264 C114.525,443.8264 145.604,443.8274 176.683,443.8274 C187.339,443.8274 187.339,443.8274 187.339,433.0884 L187.339,410.1924 L77.162,410.1924 Z M442.536,436.7254 C440.656,437.1494 439.52,437.3094 438.448,437.6634 C430.198,440.3884 423.604,445.5074 417.523,451.6024 C398.324,470.8494 369.579,475.1514 346.009,461.9614 C340.161,458.6874 334.964,454.0454 329.995,449.4594 C323.303,443.2824 316.089,438.4484 306.955,436.4884 L306.955,494.7174 L442.536,494.7174 L442.536,436.7254 Z M442.555,358.8894 C437.96,358.8894 433.978,359.1124 430.034,358.8244 C426.4,358.5574 424.983,359.8414 423.994,363.4614 C416.558,390.6834 388.593,406.6834 361.386,399.1304 C342.824,393.9784 330.963,381.6774 325.269,363.2894 C324.765,361.6614 323.397,359.1754 322.246,359.0694 C317.215,358.6034 312.116,358.8694 306.917,358.8694 L306.917,418.8164 C321.972,421.4584 333.937,428.8614 344.391,439.4944 C361.085,456.4734 388.176,456.6954 404.803,439.8714 C415.4,429.1474 427.388,421.5114 442.555,418.8154 L442.555,358.8894 Z M460.213,494.9344 C468.999,494.9344 477.291,495.1614 485.563,494.8524 C490.8,494.6574 493.761,491.0944 493.95,485.5264 C494.102,481.0404 493.952,476.5434 493.953,472.0514 C493.965,324.9774 493.982,177.9044 493.987,30.8304 C493.987,20.3814 491.456,17.88315 481.013,17.88315 C330.481,17.88315 179.949,17.88315 29.416,17.88315 C19.617,17.88315 16.9985,20.5064 16.9985,30.3254 C16.9985,132.1464 16.9985,233.9654 16.9985,335.7854 L16.9985,341.4334 L23.597,341.4334 C54.867,341.4334 86.138,341.4074 117.409,341.4484 C129.212,341.4634 136.299,348.5514 136.469,360.3694 C136.543,365.5254 136.526,370.6834 136.536,375.8404 C136.546,381.2674 136.538,386.6934 136.538,392.5334 L142.579,392.5334 C156.385,392.5334 170.191,392.5164 183.996,392.5384 C197.969,392.5604 204.511,399.0654 204.519,412.9004 C204.526,423.0104 204.521,433.1214 204.521,443.8274 C206.783,443.8274 208.57,443.8294 210.356,443.8264 C222.332,443.8104 234.309,443.6894 246.284,443.8124 C254.381,443.8964 260.648,448.0484 262.917,454.9224 C263.834,457.7004 264.132,460.7814 264.174,463.7314 C264.32,473.9894 264.231,484.2504 264.231,494.6714 L289.225,494.6714 L289.225,358.6864 C286.188,358.6864 283.376,358.9244 280.619,358.6344 C275.614,358.1084 272.533,354.7204 272.52,350.1694 C272.506,345.4914 275.94,341.9464 281.031,341.4854 C282.517,341.3504 284.023,341.4354 285.52,341.4354 C332.592,341.4334 379.665,341.4324 426.738,341.4334 C440.376,341.4344 454.017,341.3554 467.655,341.4844 C473.133,341.5364 476.839,345.1034 476.985,349.8884 C477.132,354.7454 473.681,358.2894 468.128,358.7284 C465.556,358.9324 462.955,358.7634 460.213,358.7634 L460.213,494.9344 Z M491.038,512.0004 L19.954,512.0004 C19.576,511.7034 19.243,511.2844 18.813,511.1294 C5.739,506.3944 0.0111176932,498.3154 0.0111176932,484.4914 C0.0111176932,332.1534 0.0111176932,179.8174 0.018,27.4804 C0.02,11.6514 10.762,0.9014 26.603,0.9004 C179.237,0.8874 331.87,0.892839632 484.504,0.9204 C486.807,0.9204 489.16,1.1014 491.403,1.5934 C501.922,3.8994 507.386,11.4484 511,20.8394 L511,492.0344 C507.634,501.9774 500.979,508.6314 491.038,512.0004 L491.038,512.0004 Z" id="Fill-1" fill="#231F20" mask="url(#mask-2)"></path>
            </g>
            <g id="Group-6">
                <mask id="mask-4" fill="white">
                    <use xlink:href="#path-3"></use>
                </mask>
                <g id="Clip-5"></g>
                <path d="M512.0004,20.8394 C508.3864,11.4484 502.9224,3.8994 492.4024,1.5934 C490.1594,1.1014 487.8074,0.9204 485.5044,0.9204 C332.8704,0.8894 180.2364,0.8874 27.6034,0.9004 C11.7624,0.9014 1.0204,11.6514 1.0184,27.4804 C1.0074,179.8174 1.0104,332.1534 1.0134,484.4914 C1.0144,498.3154 6.7394,506.3944 19.8134,511.1294 C20.2424,511.2844 20.5764,511.7034 20.9544,512.0004 L0.0004,512.0004 C0.0004,341.3754 0.0004,170.7504 0.0004,0.0004 L512.0004,0.0004 L512.0004,20.8394 Z" id="Fill-4" fill="#FEFEFE" mask="url(#mask-4)"></path>
            </g>
            <g id="Group-9" transform="translate(492.000000, 492.000000)">
                <mask id="mask-6" fill="white">
                    <use xlink:href="#path-5"></use>
                </mask>
                <g id="Clip-8"></g>
                <path d="M0.0384,20 C9.9784,16.632 16.6344,9.978 20.0004,0.034 L20.0004,20 L0.0384,20 Z" id="Fill-7" fill="#FEFEFE" mask="url(#mask-6)"></path>
            </g>
            <path d="M171.578,273.1504 L171.525,273.1504 C171.525,281.4434 171.472,289.7374 171.543,298.0304 C171.593,303.7704 174.677,307.2544 179.604,307.3934 C184.459,307.5304 188.174,304.0974 188.235,298.4874 C188.417,281.7384 188.425,264.9834 188.211,248.2344 C188.142,242.8084 184.002,239.1824 179.329,239.5134 C174.716,239.8394 171.646,243.4064 171.598,248.7694 C171.523,256.8954 171.578,265.0234 171.578,273.1504 L171.578,273.1504 Z M86.567,119.5464 C91.284,116.9164 95.436,114.9754 99.19,112.4434 C118.258,99.5834 139.826,99.6294 158.807,112.7634 C172.047,121.9264 186.566,122.7164 198.815,114.1994 C220.332,99.2364 241.594,99.1404 263.089,114.1024 C266.049,116.1624 269.557,117.4344 273.31,119.3234 L273.31,86.4674 L86.567,86.4674 L86.567,119.5464 Z M86.494,153.5984 L273.278,153.5984 L273.278,138.4574 C264.48,133.7064 256.503,129.4554 248.58,125.1064 C236.301,118.3674 223.893,118.0794 212.33,126.0104 C190.57,140.9344 169.331,141.0254 147.621,126.0134 C136.912,118.6084 125.133,118.3444 113.546,123.9514 C104.538,128.3114 95.886,133.4074 86.494,138.4914 L86.494,153.5984 Z M307.271,188.2634 L307.271,128.9424 L290.538,128.9424 C290.538,136.2144 290.545,143.4674 290.536,150.7194 C290.52,165.1344 284.271,171.4364 269.967,171.4384 C209.76,171.4424 149.552,171.4434 89.345,171.4374 C75.485,171.4354 68.977,164.8664 68.966,150.9174 C68.948,130.1224 68.916,109.3274 68.9227397,88.5324 C68.928,75.7144 75.815,68.8214 88.625,68.8184 C149.332,68.8074 210.038,68.8074 270.745,68.8194 C283.813,68.8214 290.475,75.4014 290.532,88.3184 C290.564,95.7964 290.537,103.2754 290.537,111.6024 C295.472,111.6024 300.208,111.6154 304.945,111.6004 C318.075,111.5594 324.59,117.9304 324.64,131.0414 C324.71,149.3404 324.745,167.6404 324.698,185.9394 C324.663,198.9484 318.005,205.4924 304.963,205.4914 C268.373,205.4884 231.783,205.4644 195.193,205.4494 C193.216,205.4484 191.24,205.4494 188.545,205.4494 C188.545,211.1314 188.404,216.5554 188.668,221.9594 C188.719,223.0094 190.163,224.3104 191.279,224.9394 C200.855,230.3334 205.537,238.4844 205.527,249.4374 C205.51,265.7404 205.551,282.0434 205.542,298.3464 C205.534,312.6014 195.182,323.8414 181.468,324.5304 C167.37,325.2384 155.269,315.6634 154.626,301.4704 C153.784,282.8854 154.105,264.2274 154.521,245.6134 C154.721,236.6814 159.722,229.8874 167.552,225.6824 C170.548,224.0734 171.505,222.2724 171.301,219.0884 C171.057,215.2774 171.212,211.4394 171.252,207.6134 C171.386,194.7774 177.816,188.2954 190.639,188.2794 C227.394,188.2374 264.15,188.2644 300.906,188.2634 L307.271,188.2634 Z" id="Fill-10" fill="#231F20"></path>
        </g>
    </g>
</svg>