<?xml version="1.0" encoding="UTF-8"?>
<svg width="32px" height="30px" viewBox="0 0 32 30" version="1.1" xmlns="http://www.w3.org/2000/svg" xmlns:xlink="http://www.w3.org/1999/xlink">
    <!-- Generator: Sketch 59.1 (86144) - https://sketch.com -->
    <title>ic-business-center-24px</title>
    <desc>Created with Sketch.</desc>
    <g id="Page-1" stroke="none" stroke-width="1" fill="none" fill-rule="evenodd">
        <g id="Home" transform="translate(-544.000000, -950.000000)">
            <g id="Categories" transform="translate(0.000000, 906.000000)">
                <g id="Group-3" transform="translate(351.000000, 39.000000)">
                    <g id="Group-2-Copy" transform="translate(190.000000, 0.000000)">
                        <g id="ic-business-center-24px">
                            <path d="M0,0 L39,0 L39,39 L0,39 L0,0 Z M16.25,8.125 L22.75,8.125 L22.75,11.375 L16.25,11.375 L16.25,8.125 Z M16.25,8.125 L22.75,8.125 L22.75,11.375 L16.25,11.375 L16.25,8.125 Z" id="Shape"></path>
                            <path d="M15.8,26.6666667 L15.8,25 L4.616,25 L4.6,31.6666667 C4.6,33.5166667 6.024,35 7.8,35 L30.2,35 C31.976,35 33.4,33.5166667 33.4,31.6666667 L33.4,25 L22.2,25 L22.2,26.6666667 L15.8,26.6666667 Z M31.8,11.6666667 L25.384,11.6666667 L25.384,8.33333333 L22.184,5 L15.784,5 L12.584,8.33333333 L12.584,11.6666667 L6.2,11.6666667 C4.44,11.6666667 3,13.1666667 3,15 L3,20 C3,21.85 4.424,23.3333333 6.2,23.3333333 L15.8,23.3333333 L15.8,20 L22.2,20 L22.2,23.3333333 L31.8,23.3333333 C33.56,23.3333333 35,21.8333333 35,20 L35,15 C35,13.1666667 33.56,11.6666667 31.8,11.6666667 Z M22.2,11.6666667 L15.8,11.6666667 L15.8,8.33333333 L22.2,8.33333333 L22.2,11.6666667 Z" id="Shape" fill="#A1A9B3" fill-rule="nonzero"></path>
                        </g>
                    </g>
                </g>
            </g>
        </g>
    </g>
</svg>